# xmcd CD database file
#
# Track frame offsets:
#	150
#	9603
#	22564
#	38445
#	53700
#	64716
#	77340
#	88216
#	100999
#	111631
#	128855
#	142625
#
# Disc length: 2077 seconds
#
# Revision: 0
# Processed by: cddbd v1.5.1PL2 Copyright (c) Steve Scherf et al.
# Submitted via: cdripper 1,0,15,908
#
DISCID=89081b0c
DTITLE=Sonya Hedenbratt - Sonya
DYEAR=1967
DGENRE=Jazz
TTITLE0=Hej, titta över
TTITLE1=Låt hjärtat va' me'
TTITLE2=Hur gick det i förrgår kväll
TTITLE3=Ett litet ställe
TTITLE4=Finns han här, den man som jag håller kär
TTITLE5=Kärlek och solsken och du
TTITLE6=Nu har vi fått pubar i stan
TTITLE7=När jag får pension
TTITLE8=Bara vinden, bara sanden
TTITLE9=Hallå, hallå
TTITLE10=Världen är vacker
TTITLE11=Arvet
EXTD=YEAR: 1967
EXTT0=
EXTT1=
EXTT2=
EXTT3=
EXTT4=
EXTT5=
EXTT6=
EXTT7=
EXTT8=
EXTT9=
EXTT10=
EXTT11=
PLAYORDER=
